<svg xmlns="http://www.w3.org/2000/svg" viewBox="0 0 622 266">
    <g fill="#FFFFFF" fill-rule="nonzero">
        <path
            d="M82.62.9H.58V206h82.04c56.549 0 99.62-44.536 99.62-102.55C182.24 45.436 139.169.9 82.62.9zm0 159.978H47.46V46.022h35.16c32.23 0 54.5 22.268 54.5 57.428s-22.27 57.428-54.5 57.428zm142.439-75.383V59.4h-43.98V206h43.98v-66.263c0-29.027 25.8-36.357 43.98-33.425V56.468c-18.472 0-38.116 9.382-43.98 29.027zM376.444 56.5l-28.106 91.494L315.149 56.5h-49.335l59.5 142.623c-6.577 18.239-16.444 24.817-37.374 24.817v41.86c41.86 2.093 68.471-16.744 85.215-64.285L424.284 56.5h-47.84zm21.434 149.089v-.089h-.15v.5h.15v-.226c-.000132-.037025.017121-.071966.046599-.094369.029479-.022404.067763-.029672.103401-.019631v-.17c-.066424-.003922-.127492.036383-.15.099zm.515-.089l-.094.306-.111-.306h-.165l.2.477c-.013767.055032-.066814.090829-.123.083v.14c.136127.012193.259341-.080759.285-.215l.171-.485h-.163zm.3.089v-.089h-.15v.5h.15v-.226c-.000132-.037025.017121-.071966.046599-.094369.029479-.022404.067763-.029672.103401-.019631v-.17c-.06821-.006261-.131998.034481-.155.099h.005zm.475-.089l-.094.306-.116-.306h-.165l.2.477c-.013827.055904-.068111.091948-.125.083v.14c.136127.012193.259341-.080759.285-.215l.171-.485h-.156zM505.1 52.314c-20.033 0-34.684 6.877-44.551 18.239V56.5H415.7v209.3h44.85v-73.853c9.865 11.362 24.516 18.239 44.55 18.239 39.169 0 71.461-34.385 71.461-78.936 0-44.551-32.293-78.936-71.461-78.936zm-8.97 115.414c-20.631 0-35.581-14.053-35.581-36.478s14.95-36.478 35.581-36.478c20.631 0 35.58 14.053 35.58 36.478s-14.95 36.478-35.581 36.478h.001zM621.461 180.375c0-15.4-24.465-50.919-24.465-50.919s-24.465 35.518-24.465 50.919c0 15.401 10.917 25.225 24.465 25.225s24.465-9.708 24.465-25.225z" />
    </g>
</svg>